<mxfile host="app.diagrams.net" modified="2023-11-08T13:19:20.649Z" agent="Mozilla/5.0 (X11; Linux x86_64) AppleWebKit/537.36 (KHTML, like Gecko) Chrome/117.0.0.0 Safari/537.36" etag="7XwvF094KK3-E1JNlP-R" version="22.0.8" type="github">
  <diagram name="Page-1" id="O27ZBOrVGdM2uncm8j3n">
    <mxGraphModel dx="1657" dy="978" grid="1" gridSize="10" guides="1" tooltips="1" connect="1" arrows="1" fold="1" page="1" pageScale="1" pageWidth="827" pageHeight="1169" math="0" shadow="0">
      <root>
        <mxCell id="0" />
        <mxCell id="1" parent="0" />
        <mxCell id="lURQaK-xTq9mNLs6c61o-7" value="Terminal" style="shape=umlLifeline;perimeter=lifelinePerimeter;whiteSpace=wrap;html=1;container=1;dropTarget=0;collapsible=0;recursiveResize=0;outlineConnect=0;portConstraint=eastwest;newEdgeStyle={&quot;curved&quot;:0,&quot;rounded&quot;:0};" vertex="1" parent="1">
          <mxGeometry x="196" y="40" width="100" height="560" as="geometry" />
        </mxCell>
        <mxCell id="lURQaK-xTq9mNLs6c61o-8" value="" style="html=1;points=[[0,0,0,0,5],[0,1,0,0,-5],[1,0,0,0,5],[1,1,0,0,-5]];perimeter=orthogonalPerimeter;outlineConnect=0;targetShapes=umlLifeline;portConstraint=eastwest;newEdgeStyle={&quot;curved&quot;:0,&quot;rounded&quot;:0};" vertex="1" parent="lURQaK-xTq9mNLs6c61o-7">
          <mxGeometry x="45" y="90" width="10" height="60" as="geometry" />
        </mxCell>
        <mxCell id="lURQaK-xTq9mNLs6c61o-34" value="" style="html=1;points=[[0,0,0,0,5],[0,1,0,0,-5],[1,0,0,0,5],[1,1,0,0,-5]];perimeter=orthogonalPerimeter;outlineConnect=0;targetShapes=umlLifeline;portConstraint=eastwest;newEdgeStyle={&quot;curved&quot;:0,&quot;rounded&quot;:0};" vertex="1" parent="lURQaK-xTq9mNLs6c61o-7">
          <mxGeometry x="45" y="260" width="10" height="30" as="geometry" />
        </mxCell>
        <mxCell id="lURQaK-xTq9mNLs6c61o-9" value="Control" style="shape=umlLifeline;perimeter=lifelinePerimeter;whiteSpace=wrap;html=1;container=1;dropTarget=0;collapsible=0;recursiveResize=0;outlineConnect=0;portConstraint=eastwest;newEdgeStyle={&quot;curved&quot;:0,&quot;rounded&quot;:0};" vertex="1" parent="1">
          <mxGeometry x="595" y="39" width="100" height="561" as="geometry" />
        </mxCell>
        <mxCell id="lURQaK-xTq9mNLs6c61o-10" value="" style="html=1;points=[[0,0,0,0,5],[0,1,0,0,-5],[1,0,0,0,5],[1,1,0,0,-5]];perimeter=orthogonalPerimeter;outlineConnect=0;targetShapes=umlLifeline;portConstraint=eastwest;newEdgeStyle={&quot;curved&quot;:0,&quot;rounded&quot;:0};" vertex="1" parent="lURQaK-xTq9mNLs6c61o-9">
          <mxGeometry x="45" y="112" width="10" height="20" as="geometry" />
        </mxCell>
        <mxCell id="lURQaK-xTq9mNLs6c61o-19" value="" style="html=1;points=[[0,0,0,0,5],[0,1,0,0,-5],[1,0,0,0,5],[1,1,0,0,-5]];perimeter=orthogonalPerimeter;outlineConnect=0;targetShapes=umlLifeline;portConstraint=eastwest;newEdgeStyle={&quot;curved&quot;:0,&quot;rounded&quot;:0};" vertex="1" parent="lURQaK-xTq9mNLs6c61o-9">
          <mxGeometry x="45" y="154" width="10" height="20" as="geometry" />
        </mxCell>
        <mxCell id="lURQaK-xTq9mNLs6c61o-23" value="" style="html=1;points=[[0,0,0,0,5],[0,1,0,0,-5],[1,0,0,0,5],[1,1,0,0,-5]];perimeter=orthogonalPerimeter;outlineConnect=0;targetShapes=umlLifeline;portConstraint=eastwest;newEdgeStyle={&quot;curved&quot;:0,&quot;rounded&quot;:0};" vertex="1" parent="lURQaK-xTq9mNLs6c61o-9">
          <mxGeometry x="45" y="193" width="10" height="20" as="geometry" />
        </mxCell>
        <mxCell id="lURQaK-xTq9mNLs6c61o-31" value="" style="html=1;points=[[0,0,0,0,5],[0,1,0,0,-5],[1,0,0,0,5],[1,1,0,0,-5]];perimeter=orthogonalPerimeter;outlineConnect=0;targetShapes=umlLifeline;portConstraint=eastwest;newEdgeStyle={&quot;curved&quot;:0,&quot;rounded&quot;:0};" vertex="1" parent="lURQaK-xTq9mNLs6c61o-9">
          <mxGeometry x="45" y="320" width="10" height="90" as="geometry" />
        </mxCell>
        <mxCell id="lURQaK-xTq9mNLs6c61o-13" value="" style="shape=umlLifeline;perimeter=lifelinePerimeter;whiteSpace=wrap;html=1;container=1;dropTarget=0;collapsible=0;recursiveResize=0;outlineConnect=0;portConstraint=eastwest;newEdgeStyle={&quot;curved&quot;:0,&quot;rounded&quot;:0};participant=umlActor;" vertex="1" parent="1">
          <mxGeometry x="25" y="40" width="20" height="560" as="geometry" />
        </mxCell>
        <mxCell id="lURQaK-xTq9mNLs6c61o-15" value="" style="html=1;points=[[0,0,0,0,5],[0,1,0,0,-5],[1,0,0,0,5],[1,1,0,0,-5]];perimeter=orthogonalPerimeter;outlineConnect=0;targetShapes=umlLifeline;portConstraint=eastwest;newEdgeStyle={&quot;curved&quot;:0,&quot;rounded&quot;:0};" vertex="1" parent="lURQaK-xTq9mNLs6c61o-13">
          <mxGeometry x="5" y="70" width="10" height="80" as="geometry" />
        </mxCell>
        <mxCell id="lURQaK-xTq9mNLs6c61o-22" value="" style="html=1;points=[[0,0,0,0,5],[0,1,0,0,-5],[1,0,0,0,5],[1,1,0,0,-5]];perimeter=orthogonalPerimeter;outlineConnect=0;targetShapes=umlLifeline;portConstraint=eastwest;newEdgeStyle={&quot;curved&quot;:0,&quot;rounded&quot;:0};" vertex="1" parent="lURQaK-xTq9mNLs6c61o-13">
          <mxGeometry x="5" y="175" width="10" height="20" as="geometry" />
        </mxCell>
        <mxCell id="lURQaK-xTq9mNLs6c61o-25" value="" style="html=1;points=[[0,0,0,0,5],[0,1,0,0,-5],[1,0,0,0,5],[1,1,0,0,-5]];perimeter=orthogonalPerimeter;outlineConnect=0;targetShapes=umlLifeline;portConstraint=eastwest;newEdgeStyle={&quot;curved&quot;:0,&quot;rounded&quot;:0};" vertex="1" parent="lURQaK-xTq9mNLs6c61o-13">
          <mxGeometry x="5" y="210" width="10" height="20" as="geometry" />
        </mxCell>
        <mxCell id="lURQaK-xTq9mNLs6c61o-26" value="" style="html=1;points=[[0,0,0,0,5],[0,1,0,0,-5],[1,0,0,0,5],[1,1,0,0,-5]];perimeter=orthogonalPerimeter;outlineConnect=0;targetShapes=umlLifeline;portConstraint=eastwest;newEdgeStyle={&quot;curved&quot;:0,&quot;rounded&quot;:0};" vertex="1" parent="lURQaK-xTq9mNLs6c61o-13">
          <mxGeometry x="5" y="250" width="10" height="30" as="geometry" />
        </mxCell>
        <mxCell id="lURQaK-xTq9mNLs6c61o-28" value="" style="html=1;points=[[0,0,0,0,5],[0,1,0,0,-5],[1,0,0,0,5],[1,1,0,0,-5]];perimeter=orthogonalPerimeter;outlineConnect=0;targetShapes=umlLifeline;portConstraint=eastwest;newEdgeStyle={&quot;curved&quot;:0,&quot;rounded&quot;:0};" vertex="1" parent="lURQaK-xTq9mNLs6c61o-13">
          <mxGeometry x="5" y="290" width="10" height="20" as="geometry" />
        </mxCell>
        <mxCell id="lURQaK-xTq9mNLs6c61o-33" value="" style="html=1;points=[[0,0,0,0,5],[0,1,0,0,-5],[1,0,0,0,5],[1,1,0,0,-5]];perimeter=orthogonalPerimeter;outlineConnect=0;targetShapes=umlLifeline;portConstraint=eastwest;newEdgeStyle={&quot;curved&quot;:0,&quot;rounded&quot;:0};" vertex="1" parent="lURQaK-xTq9mNLs6c61o-13">
          <mxGeometry x="5" y="500" width="10" height="35" as="geometry" />
        </mxCell>
        <mxCell id="lURQaK-xTq9mNLs6c61o-14" value="Installing oah-shell" style="html=1;verticalAlign=bottom;endArrow=block;curved=0;rounded=0;entryX=0.5;entryY=0;entryDx=0;entryDy=0;entryPerimeter=0;" edge="1" parent="1" target="lURQaK-xTq9mNLs6c61o-8">
          <mxGeometry width="80" relative="1" as="geometry">
            <mxPoint x="40" y="130" as="sourcePoint" />
            <mxPoint x="239.5" y="130" as="targetPoint" />
          </mxGeometry>
        </mxCell>
        <mxCell id="lURQaK-xTq9mNLs6c61o-16" value="Checking if oah-shell already present" style="html=1;verticalAlign=bottom;endArrow=block;curved=0;rounded=0;entryX=0;entryY=0;entryDx=0;entryDy=5;entryPerimeter=0;" edge="1" parent="1" source="lURQaK-xTq9mNLs6c61o-36">
          <mxGeometry x="-0.0034" width="80" relative="1" as="geometry">
            <mxPoint x="446" y="150" as="sourcePoint" />
            <mxPoint x="640" y="150" as="targetPoint" />
            <mxPoint as="offset" />
          </mxGeometry>
        </mxCell>
        <mxCell id="lURQaK-xTq9mNLs6c61o-20" value="oah-shell available in the system" style="html=1;verticalAlign=bottom;endArrow=open;dashed=1;endSize=8;curved=0;rounded=0;" edge="1" parent="1">
          <mxGeometry relative="1" as="geometry">
            <mxPoint x="644.5" y="212" as="sourcePoint" />
            <mxPoint x="40" y="218" as="targetPoint" />
            <Array as="points">
              <mxPoint x="405" y="212" />
            </Array>
          </mxGeometry>
        </mxCell>
        <mxCell id="lURQaK-xTq9mNLs6c61o-24" value="Git not Installed in the system" style="html=1;verticalAlign=bottom;endArrow=open;dashed=1;endSize=8;curved=0;rounded=0;exitX=0;exitY=1;exitDx=0;exitDy=-5;exitPerimeter=0;" edge="1" parent="1" target="lURQaK-xTq9mNLs6c61o-25">
          <mxGeometry x="0.0008" relative="1" as="geometry">
            <mxPoint x="640" y="251" as="sourcePoint" />
            <mxPoint x="40" y="254" as="targetPoint" />
            <mxPoint as="offset" />
          </mxGeometry>
        </mxCell>
        <mxCell id="lURQaK-xTq9mNLs6c61o-27" value="Install Git" style="html=1;verticalAlign=bottom;endArrow=block;curved=0;rounded=0;" edge="1" parent="1" target="lURQaK-xTq9mNLs6c61o-7">
          <mxGeometry width="80" relative="1" as="geometry">
            <mxPoint x="40" y="300" as="sourcePoint" />
            <mxPoint x="120" y="300" as="targetPoint" />
          </mxGeometry>
        </mxCell>
        <mxCell id="lURQaK-xTq9mNLs6c61o-29" value="Git Installation Completed" style="html=1;verticalAlign=bottom;endArrow=open;dashed=1;endSize=8;curved=0;rounded=0;" edge="1" parent="1">
          <mxGeometry relative="1" as="geometry">
            <mxPoint x="240" y="330" as="sourcePoint" />
            <mxPoint x="40" y="330" as="targetPoint" />
            <Array as="points">
              <mxPoint x="150" y="330" />
            </Array>
          </mxGeometry>
        </mxCell>
        <mxCell id="lURQaK-xTq9mNLs6c61o-32" value="oah-shell Installed" style="html=1;verticalAlign=bottom;endArrow=open;dashed=1;endSize=8;curved=0;rounded=0;" edge="1" parent="1">
          <mxGeometry x="0.7812" y="-2" relative="1" as="geometry">
            <mxPoint x="865" y="452" as="sourcePoint" />
            <mxPoint x="40" y="542" as="targetPoint" />
            <mxPoint as="offset" />
          </mxGeometry>
        </mxCell>
        <mxCell id="lURQaK-xTq9mNLs6c61o-36" value="oah-installer" style="shape=umlLifeline;perimeter=lifelinePerimeter;whiteSpace=wrap;html=1;container=1;dropTarget=0;collapsible=0;recursiveResize=0;outlineConnect=0;portConstraint=eastwest;newEdgeStyle={&quot;curved&quot;:0,&quot;rounded&quot;:0};" vertex="1" parent="1">
          <mxGeometry x="379" y="40" width="100" height="560" as="geometry" />
        </mxCell>
        <mxCell id="lURQaK-xTq9mNLs6c61o-39" value="" style="html=1;points=[[0,0,0,0,5],[0,1,0,0,-5],[1,0,0,0,5],[1,1,0,0,-5]];perimeter=orthogonalPerimeter;outlineConnect=0;targetShapes=umlLifeline;portConstraint=eastwest;newEdgeStyle={&quot;curved&quot;:0,&quot;rounded&quot;:0};" vertex="1" parent="lURQaK-xTq9mNLs6c61o-36">
          <mxGeometry x="45" y="100" width="10" height="40" as="geometry" />
        </mxCell>
        <mxCell id="lURQaK-xTq9mNLs6c61o-38" value="Execute oah-installer/install.sh" style="html=1;verticalAlign=bottom;endArrow=block;curved=0;rounded=0;exitX=1;exitY=0;exitDx=0;exitDy=5;exitPerimeter=0;" edge="1" parent="1">
          <mxGeometry width="80" relative="1" as="geometry">
            <mxPoint x="251" y="140" as="sourcePoint" />
            <mxPoint x="428.5" y="140" as="targetPoint" />
          </mxGeometry>
        </mxCell>
        <mxCell id="lURQaK-xTq9mNLs6c61o-42" value="oah-shell" style="shape=umlLifeline;perimeter=lifelinePerimeter;whiteSpace=wrap;html=1;container=1;dropTarget=0;collapsible=0;recursiveResize=0;outlineConnect=0;portConstraint=eastwest;newEdgeStyle={&quot;curved&quot;:0,&quot;rounded&quot;:0};" vertex="1" parent="1">
          <mxGeometry x="820" y="39" width="100" height="561" as="geometry" />
        </mxCell>
        <mxCell id="lURQaK-xTq9mNLs6c61o-44" value="" style="html=1;points=[[0,0,0,0,5],[0,1,0,0,-5],[1,0,0,0,5],[1,1,0,0,-5]];perimeter=orthogonalPerimeter;outlineConnect=0;targetShapes=umlLifeline;portConstraint=eastwest;newEdgeStyle={&quot;curved&quot;:0,&quot;rounded&quot;:0};" vertex="1" parent="lURQaK-xTq9mNLs6c61o-42">
          <mxGeometry x="45" y="331" width="10" height="69" as="geometry" />
        </mxCell>
        <mxCell id="lURQaK-xTq9mNLs6c61o-43" value="control" style="shape=umlLifeline;perimeter=lifelinePerimeter;whiteSpace=wrap;html=1;container=1;dropTarget=0;collapsible=0;recursiveResize=0;outlineConnect=0;portConstraint=eastwest;newEdgeStyle={&quot;curved&quot;:0,&quot;rounded&quot;:0};" vertex="1" parent="1">
          <mxGeometry x="1040" y="39" width="100" height="561" as="geometry" />
        </mxCell>
        <mxCell id="lURQaK-xTq9mNLs6c61o-47" value="" style="html=1;points=[[0,0,0,0,5],[0,1,0,0,-5],[1,0,0,0,5],[1,1,0,0,-5]];perimeter=orthogonalPerimeter;outlineConnect=0;targetShapes=umlLifeline;portConstraint=eastwest;newEdgeStyle={&quot;curved&quot;:0,&quot;rounded&quot;:0};" vertex="1" parent="lURQaK-xTq9mNLs6c61o-43">
          <mxGeometry x="45" y="341" width="10" height="49" as="geometry" />
        </mxCell>
        <mxCell id="lURQaK-xTq9mNLs6c61o-45" value="Execute oah-shell/install.sh" style="html=1;verticalAlign=bottom;endArrow=block;curved=0;rounded=0;" edge="1" parent="1" target="lURQaK-xTq9mNLs6c61o-42">
          <mxGeometry width="80" relative="1" as="geometry">
            <mxPoint x="650" y="370" as="sourcePoint" />
            <mxPoint x="730" y="370" as="targetPoint" />
          </mxGeometry>
        </mxCell>
        <mxCell id="lURQaK-xTq9mNLs6c61o-46" value="Create distribution directories&amp;nbsp;" style="html=1;verticalAlign=bottom;endArrow=block;curved=0;rounded=0;" edge="1" parent="1" target="lURQaK-xTq9mNLs6c61o-43">
          <mxGeometry width="80" relative="1" as="geometry">
            <mxPoint x="874" y="380" as="sourcePoint" />
            <mxPoint x="954" y="380" as="targetPoint" />
          </mxGeometry>
        </mxCell>
        <mxCell id="lURQaK-xTq9mNLs6c61o-48" value="Distribution directories created" style="html=1;verticalAlign=bottom;endArrow=open;dashed=1;endSize=8;curved=0;rounded=0;" edge="1" parent="1" target="lURQaK-xTq9mNLs6c61o-44">
          <mxGeometry relative="1" as="geometry">
            <mxPoint x="1085" y="428" as="sourcePoint" />
            <mxPoint x="880" y="428" as="targetPoint" />
          </mxGeometry>
        </mxCell>
      </root>
    </mxGraphModel>
  </diagram>
</mxfile>
